<?xml version="1.0" encoding="UTF-8"?>
<svg id="Ebene_2" data-name="Ebene 2" xmlns="http://www.w3.org/2000/svg" xmlns:xlink="http://www.w3.org/1999/xlink" viewBox="0 0 688.78 215.24">
  <defs>
    <style>
      .cls-1 {
        letter-spacing: .04em;
      }

      .cls-2 {
        letter-spacing: .04em;
      }

      .cls-3 {
        font-family: AcuminConcept-ExtraCondBlackItalic, 'Acumin Variable Concept';
        font-size: 52.2px;
        font-style: italic;
        font-variation-settings: 'wght' 800, 'wdth' 50, 'slnt' 12;
        font-weight: 800;
      }

      .cls-3, .cls-4 {
        fill: #fff;
      }

      .cls-5 {
        letter-spacing: .05em;
      }

      .cls-6 {
        letter-spacing: .04em;
      }

      .cls-7 {
        letter-spacing: .04em;
      }

      .cls-8 {
        letter-spacing: .04em;
      }

      .cls-9 {
        letter-spacing: .04em;
      }

      .cls-10 {
        fill: url(#Unbenannter_Verlauf_481);
      }

      .cls-10, .cls-4 {
        stroke-width: 0px;
      }

      .cls-11 {
        letter-spacing: .04em;
      }

      .cls-12 {
        letter-spacing: .04em;
      }

      .cls-13 {
        letter-spacing: .04em;
      }

      .cls-14 {
        letter-spacing: .04em;
      }

      .cls-15 {
        letter-spacing: .03em;
      }
    </style>
    <linearGradient id="Unbenannter_Verlauf_481" data-name="Unbenannter Verlauf 481" x1="10.71" y1="77.34" x2="183.93" y2="83.39" gradientUnits="userSpaceOnUse">
      <stop offset="0" stop-color="#043558"/>
      <stop offset=".22" stop-color="#034471"/>
      <stop offset=".54" stop-color="#015990"/>
      <stop offset=".81" stop-color="#0165a4"/>
      <stop offset="1" stop-color="#016aab"/>
    </linearGradient>
  </defs>
  <g id="Ebene_1-2" data-name="Ebene 1">
    <path class="cls-10" d="M40.44,4h54.77l-12.02,56.1c13.14-17.59,30.5-42.52,40.29-56.1h63.23l-58.55,62.78,27.38,89.94h-56.1l-14.03-54.77-14.02,14.02-8.68,40.74H7.94L40.44,4Z"/>
    <path class="cls-4" d="M266.18,156.74l-4.68-152.75h-54.18l-46.2,49.54-13.25,29.54,22.43,73.67h1.05l9.58-25.4h30.7l-1.13,25.4h55.67ZM195.85,90.62c6.21-18.04,12.45-35.64,18.25-54.98h2.21c-1.34,17.57-2.47,43.19-3.12,54.98h-17.35Z"/>
    <path class="cls-4" d="M328.24,109.53c.45,7.57,3.34,16.7,14.03,16.7,10.02,0,12.24-5.79,12.24-11.8,0-7.57-5.34-10.91-22.04-17.81-27.83-11.36-42.08-23.6-42.08-45.86,0-28.05,20.26-50.76,64.79-50.76,46.97,0,65.67,24.93,65.45,49.64h-51.87c-.22-6.68-2.45-15.36-11.8-15.36-6.46,0-9.8,4.01-9.8,9.35,0,5.79,3.79,8.46,19.81,14.69,37.4,14.47,46.08,30.05,46.08,49.2,0,32.73-26.72,53.21-70.79,53.21-48.98,0-66.57-25.15-66.34-51.2h52.31Z"/>
    <path class="cls-4" d="M469.78,41.85h-36.29l8.01-37.85h128.01l-8.01,37.85h-35.85l-24.49,114.87h-55.88l24.49-114.87Z"/>
    <text class="cls-3" transform="translate(.69 201.56)"><tspan class="cls-13" x="0" y="0">K</tspan><tspan class="cls-8" x="22.6" y="0">EE</tspan><tspan class="cls-5" x="62.38" y="0">L</tspan><tspan class="cls-9" x="82.21" y="0">A</tspan><tspan class="cls-12" x="104.97" y="0">H </tspan><tspan class="cls-1" x="137.28" y="0">A</tspan><tspan class="cls-13" x="160.04" y="0">R</tspan><tspan class="cls-6" x="182.64" y="0">M</tspan><tspan class="cls-2" x="212.71" y="0">A </tspan><tspan class="cls-11" x="243.87" y="0">S</tspan><tspan class="cls-14" x="265.43" y="0">E</tspan><tspan class="cls-15" x="285.32" y="0">R</tspan><tspan class="cls-7" x="307.5" y="0">V</tspan><tspan class="cls-14" x="329.12" y="0">E</tspan><tspan class="cls-2" x="349" y="0">R </tspan><tspan class="cls-13" x="380.17" y="0">T</tspan><tspan class="cls-2" x="399.48" y="0">OOL </tspan><tspan class="cls-13" x="473.66" y="0">T</tspan><tspan class="cls-2" x="492.97" y="0">OOL</tspan></text>
  </g>
</svg>